<?xml version="1.0" encoding="UTF-8"?>
<svg id="Layer_2" data-name="Layer 2" xmlns="http://www.w3.org/2000/svg" viewBox="0 0 768.02 768.02">
  <defs>
    <style>
      .cls-1 {
        fill: #4385fd;
      }

      .cls-1, .cls-2, .cls-3, .cls-4, .cls-5, .cls-6 {
        fill-rule: evenodd;
      }

      .cls-2 {
        fill: #30ab51;
      }

      .cls-3 {
        fill: #feba00;
      }

      .cls-4 {
        fill: #c6231a;
      }

      .cls-5 {
        fill: #fff;
      }

      .cls-6 {
        fill: #ee4131;
      }
    </style>
  </defs>
  <g id="Layer_1-2" data-name="Layer 1">
    <g>
      <path class="cls-5" d="M154.42,0h460.54c83.98,0,153.06,69.08,153.06,154.42v460.54c0,83.98-69.08,153.06-153.06,153.06H154.42C69.08,768.02,0,698.94,0,614.96V154.42C0,69.08,69.08,0,154.42,0h0Z"/>
      <path class="cls-1" d="M97.53,273.61v285.81c0,20.32,17.61,37.93,39.28,37.93h90.75v-223.5l-130.03-100.24Z"/>
      <path class="cls-2" d="M541.81,373.85v223.5h90.75c21.67,0,37.93-17.61,37.93-37.93v-285.81l-128.68,100.24Z"/>
      <path class="cls-3" d="M670.49,273.61v-29.8c0-23.03,1.35-36.57-12.19-51.47-21.67-24.38-58.24-28.45-85.34-8.13-10.84,8.13-21.67,14.9-31.15,23.03v166.61l128.68-100.24Z"/>
      <path class="cls-4" d="M97.53,243.82v29.8l130.03,100.24v-166.61c-10.84-8.13-20.32-14.9-31.15-23.03-27.09-20.32-65.02-16.25-86.69,8.13-13.55,14.9-12.19,28.45-12.19,51.47h0Z"/>
      <path class="cls-6" d="M227.56,373.85l157.13,117.84,157.13-117.84v-166.61c-52.83,39.28-105.65,79.92-157.13,119.2-52.83-39.28-104.3-79.92-157.13-119.2v166.61Z"/>
    </g>
  </g>
</svg>