<?xml version="1.0" encoding="UTF-8"?>
<svg id="Layer_2" data-name="Layer 2" xmlns="http://www.w3.org/2000/svg" viewBox="0 0 1061.98 1061.98">
  <defs>
    <style>
      .cls-1 {
        fill: #39b54a;
      }

      .cls-2 {
        fill: #fff;
      }
    </style>
  </defs>
  <g id="Layer_1-2" data-name="Layer 1">
    <g>
      <circle class="cls-1" cx="530.99" cy="530.99" r="530.99"/>
      <path class="cls-2" d="M265.49,391.56s0-91.94,77.97-123.36c0,0,1.31-.58,3.64-1.24,4.54-1.28,9.27-1.73,13.97-1.44,7.37.46,22.4,1.64,28.93,3.95.76.27,1.52.52,2.29.76,3.56,1.13,14.79,6.3,21.58,27.64l32.58,93.68s9.59,25.37-6.77,38.93c-.52.43-1.04.88-1.52,1.36l-30.45,30.45c-3.63,3.63-6.29,8.16-7.49,13.16-.98,4.09-1.07,8.82,1.51,12.95.78,1.24,1.49,2.53,2.08,3.87,6.9,15.62,50.32,104.56,168.31,167.52,0,0,12.8,7.56,27.35-5.82l23.78-23.24c1.02-.99,1.96-2.06,2.81-3.19,3.8-5.05,18.45-21.39,43.23-11.97l98.91,33.73c.75.26,1.5.51,2.26.75,3.18,1,20.58,7.4,23.67,27.9.24,1.57.45,3.14.7,4.71,1.04,6.48,3.31,24.09-.43,35.32,0,0-23.86,75.64-128.59,78.55,0,0-68.49.57-141.83-49.67-1.99-1.36-4.01-2.66-6.07-3.91-21.3-12.87-149.92-94.61-218.09-230.96,0,0-34.33-61.68-34.33-120.45Z"/>
    </g>
  </g>
</svg>